<svg xmlns="http://www.w3.org/2000/svg" xmlns:xlink="http://www.w3.org/1999/xlink" width="247" height="179" viewBox="0 0 247 179"><path opacity=".5" fill="#5A5B5F" d="M161.533 61.056c.153 1.486.235 2.996.235 4.52 0 16.19-8.762 31.016-22.517 38.22-.69-1.106-1.528-2.77-2.143-3.994-3.09-6.15-7.762-15.44-18.564-15.44l-.344.002c-10.8.213-16.028 9.398-19.487 15.476-.627 1.104-1.464 2.573-2.17 3.63-.334-.195-.664-.396-.99-.594-13.15-7.99-21-21.933-21-37.3 0-2.083.197-4.12.482-6.128-1.976 4.06-8.28 18.775-5.844 36.668 4.695 7.513 11.14 13.972 19.06 18.783 1.19.723 2.48 1.487 3.933 2.18 1.66.792 3.363 1.192 5.067 1.192h.002c7.158-.003 10.777-6.363 13.687-11.474 2.77-4.868 4.93-8.32 7.603-8.372 1.976 0 3.73 3.19 5.998 7.695 2.612 5.196 6.19 12.314 13.97 12.314 1.858 0 3.748-.452 5.612-1.348 9.208-4.407 16.835-11.344 22.31-19.778 2.602-16.547-2.384-30.56-4.9-36.252M118.16 7.902c-31.802 0-57.675 25.874-57.675 57.675 0 11.064 3.096 21.557 8.707 30.538-2.437-17.892 3.868-32.607 5.844-36.667C78.03 38.3 96.2 21.968 118.16 21.968c22.518 0 41.103 17.16 43.373 39.087 2.514 5.694 7.5 19.705 4.9 36.254 5.985-9.212 9.402-20.212 9.402-31.733 0-31.8-25.873-57.675-57.676-57.675"/><path fill="none" d="M-355-181h960v560h-960z"/><g opacity=".5"><defs><path id="a" opacity=".5" d="M69.253 96.002c4.694 7.513 11.14 13.972 19.06 18.784l7.302-12.024c-13.15-7.99-21-21.933-21-37.298 0-2.086.197-4.12.48-6.13-1.975 4.06-8.28 18.775-5.842 36.668"/></defs><linearGradient id="b" gradientUnits="userSpaceOnUse" x1="68.701" y1="87.06" x2="95.615" y2="87.06"><stop offset="0" stop-color="#565759"/><stop offset=".224" stop-color="#5B5C5E"/><stop offset=".506" stop-color="#6A6C6E"/><stop offset=".82" stop-color="#838588"/><stop offset="1" stop-color="#95979A"/></linearGradient><use xlink:href="#a" overflow="visible" fill="url(#b)"/><clipPath id="c"><use xlink:href="#a" overflow="visible"/></clipPath><linearGradient id="d" gradientUnits="userSpaceOnUse" x1="-355" y1="378.988" x2="-354" y2="378.988" gradientTransform="matrix(-21.201 -20.265 -20.265 21.201 251.279 -15126.322)"><stop offset="0" stop-color="#565759"/><stop offset=".224" stop-color="#5B5C5E"/><stop offset=".506" stop-color="#6A6C6E"/><stop offset=".82" stop-color="#838588"/><stop offset="1" stop-color="#95979A"/></linearGradient><path clip-path="url(#c)" fill="url(#d)" d="M81.865 129.17L39.118 88.31l41.448-43.36 42.746 40.86z"/></g><g opacity=".5"><defs><path id="e" opacity=".5" d="M-355-181h960v560h-960z"/></defs><clipPath id="f"><use xlink:href="#e" overflow="visible"/></clipPath><path clip-path="url(#f)" fill="#5A5B5F" d="M19.02 170.176L8.318 125.352h9.265l6.756 30.79 8.196-30.79h10.76l7.86 31.31 6.88-31.31h9.11l-10.884 44.824h-9.6l-8.93-33.51-8.898 33.51zM71.152 125.352h8.592v7.95h-8.592v-7.95zm0 12.352h8.592v32.472h-8.592v-32.472zM85.523 160.91l8.62-1.313c.368 1.672 1.112 2.94 2.233 3.807 1.122.866 2.692 1.3 4.71 1.3 2.22 0 3.892-.408 5.014-1.224.754-.57 1.132-1.335 1.132-2.293 0-.652-.205-1.192-.612-1.62-.43-.408-1.386-.785-2.874-1.132-6.93-1.528-11.325-2.925-13.178-4.188-2.568-1.753-3.854-4.19-3.854-7.308 0-2.814 1.112-5.18 3.333-7.095 2.222-1.916 5.667-2.874 10.335-2.874 4.444 0 7.746.725 9.907 2.17 2.16 1.45 3.647 3.59 4.463 6.423l-8.103 1.498c-.347-1.263-1.004-2.23-1.972-2.904-.968-.672-2.35-1.01-4.143-1.01-2.262 0-3.883.317-4.862.95-.652.447-.978 1.028-.978 1.74 0 .613.285 1.133.856 1.56.776.572 3.45 1.377 8.028 2.417 4.576 1.04 7.77 2.313 9.586 3.82 1.793 1.53 2.69 3.66 2.69 6.392 0 2.977-1.244 5.534-3.73 7.675-2.488 2.14-6.167 3.21-11.038 3.21-4.424 0-7.924-.896-10.503-2.69-2.58-1.794-4.265-4.23-5.06-7.31"/><path clip-path="url(#f)" fill="#5A5B5F" d="M129.797 147.61L122 146.204c.876-3.14 2.385-5.463 4.525-6.97 2.14-1.51 5.32-2.264 9.54-2.264 3.832 0 6.685.453 8.56 1.36 1.876.907 3.195 2.06 3.96 3.455.765 1.396 1.147 3.96 1.147 7.69l-.092 10.028c0 2.854.137 4.958.412 6.313.275 1.356.79 2.81 1.545 4.357h-8.5c-.225-.57-.5-1.417-.825-2.538-.144-.51-.245-.846-.307-1.01-1.468 1.428-3.038 2.498-4.71 3.212-1.67.713-3.454 1.07-5.35 1.07-3.343 0-5.978-.907-7.904-2.72-1.925-1.816-2.888-4.11-2.888-6.882 0-1.834.438-3.47 1.315-4.907.876-1.438 2.104-2.538 3.683-3.302 1.58-.765 3.857-1.433 6.834-2.003 4.016-.754 6.8-1.457 8.348-2.11v-.855c0-1.65-.408-2.828-1.223-3.532-.817-.704-2.355-1.055-4.618-1.055-1.53 0-2.72.302-3.578.903-.853.605-1.548 1.66-2.077 3.167m11.496 6.972c-1.1.367-2.844.806-5.23 1.314-2.384.51-3.943 1.01-4.677 1.498-1.12.796-1.682 1.805-1.682 3.027 0 1.204.447 2.244 1.346 3.12.896.876 2.037 1.314 3.424 1.314 1.55 0 3.027-.51 4.434-1.528 1.04-.774 1.723-1.722 2.05-2.844.223-.734.335-2.13.335-4.19v-1.71zM157.835 170.176v-44.824h8.592v16.144c2.65-3.016 5.788-4.524 9.417-4.524 3.955 0 7.227 1.432 9.814 4.296 2.59 2.863 3.884 6.977 3.884 12.337 0 5.545-1.32 9.815-3.96 12.812-2.64 2.996-5.845 4.494-9.615 4.494-1.855 0-3.686-.463-5.488-1.39-1.806-.927-3.36-2.298-4.665-4.112v4.77h-7.98zm8.53-16.94c0 3.363.53 5.85 1.59 7.46 1.488 2.284 3.465 3.426 5.932 3.426 1.896 0 3.512-.81 4.847-2.43 1.335-1.622 2.003-4.175 2.003-7.66 0-3.71-.673-6.386-2.018-8.026-1.347-1.64-3.07-2.462-5.17-2.462-2.058 0-3.77.8-5.136 2.4-1.365 1.6-2.05 4.032-2.05 7.292"/><path clip-path="url(#f)" fill="#5A5B5F" d="M196.452 125.352h8.592v44.824h-8.592zM232.654 159.84l8.56 1.44c-1.1 3.138-2.837 5.528-5.212 7.17s-5.346 2.46-8.913 2.46c-5.647 0-9.826-1.844-12.537-5.534-2.14-2.955-3.21-6.686-3.21-11.19 0-5.382 1.405-9.596 4.22-12.644 2.812-3.047 6.37-4.57 10.67-4.57 4.832 0 8.643 1.595 11.436 4.785s4.127 8.077 4.005 14.66H220.15c.06 2.55.754 4.53 2.08 5.947 1.324 1.417 2.975 2.125 4.952 2.125 1.345 0 2.477-.367 3.394-1.103.916-.733 1.61-1.915 2.078-3.546m.49-8.683c-.062-2.486-.704-4.377-1.927-5.672-1.223-1.294-2.71-1.94-4.465-1.94-1.875 0-3.424.683-4.646 2.048-1.223 1.366-1.824 3.22-1.805 5.564h12.843z"/></g><g opacity=".5"><defs><path id="g" opacity=".5" d="M161.77 65.464c0 15.365-7.85 29.31-21 37.298l7.302 12.024c7.922-4.812 14.365-11.27 19.06-18.784 2.438-17.893-3.867-32.608-5.843-36.668.284 2.01.48 4.044.48 6.13"/></defs><clipPath id="h"><use xlink:href="#g" overflow="visible"/></clipPath><linearGradient id="i" gradientUnits="userSpaceOnUse" x1="-355" y1="378.988" x2="-354" y2="378.988" gradientTransform="matrix(21.201 -20.265 20.265 21.201 -14.904 -15126.322)"><stop offset="0" stop-color="#565759"/><stop offset=".224" stop-color="#5B5C5E"/><stop offset=".506" stop-color="#6A6C6E"/><stop offset=".82" stop-color="#838588"/><stop offset="1" stop-color="#95979A"/></linearGradient><path clip-path="url(#h)" fill="url(#i)" d="M154.52 129.17l42.748-40.86-41.448-43.36-42.747 40.86z"/></g></svg>